<svg width="360" height="60" viewBox="0 0 360 60" fill="none" xmlns="http://www.w3.org/2000/svg">
<g clip-path="url(#clip0_1_218)">
<path d="M320.418 50.7961V0.216797H340.353C345.534 0.216797 349.637 1.30064 352.659 3.46832C355.73 5.58785 357.265 8.76709 357.265 13.0061C357.265 15.8 356.594 18.1363 355.25 20.015C353.907 21.8455 352.036 23.2183 349.637 24.1336C347.238 25.0488 344.479 25.5064 341.361 25.5064L342.584 24.5671C346.47 24.5671 349.685 25.0729 352.228 26.0845C354.818 27.0479 356.761 28.493 358.057 30.4198C359.352 32.3467 360 34.7311 360 37.5733C360 41.8124 358.489 45.0878 355.466 47.4C352.491 49.6641 347.933 50.7961 341.792 50.7961H320.418ZM321.857 49.4233H342.08C347.454 49.4233 351.532 48.4839 354.314 46.6051C357.145 44.6783 358.561 41.6678 358.561 37.5733C358.561 33.4787 357.145 30.4921 354.314 28.6134C351.532 26.7348 347.454 25.7954 342.08 25.7954H321.498V24.4226H340.641C345.439 24.4226 349.157 23.4592 351.796 21.5323C354.483 19.6055 355.826 16.7634 355.826 13.0061C355.826 9.24882 354.483 6.40674 351.796 4.47991C349.157 2.55307 345.439 1.58966 340.641 1.58966H321.857V49.4233Z" fill="url(#paint0_linear_1_218)"/>
<path d="M273.426 24.4226H301.565V25.7954H273.426V24.4226ZM273.786 49.4233H305.883V50.7961H272.346V0.216797H304.803V1.58966H273.786V49.4233Z" fill="url(#paint1_linear_1_218)"/>
<path d="M206.609 50.7961L189.337 0.216797H190.921L207.761 49.6398H206.969L224.242 0.216797H225.681L242.953 49.6398H242.233L259.073 0.216797H260.585L243.313 50.7961H241.873L224.817 1.80643H225.105L208.049 50.7961H206.609Z" fill="url(#paint2_linear_1_218)"/>
<path d="M157.427 51.0126C153.733 51.0126 150.302 50.3866 147.136 49.1342C144.017 47.8334 141.282 46.0272 138.931 43.7151C136.628 41.4029 134.829 38.7051 133.534 35.6222C132.238 32.5393 131.591 29.1674 131.591 25.5064C131.591 21.8454 132.238 18.4735 133.534 15.3905C134.829 12.3076 136.628 9.61005 138.931 7.29784C141.282 4.98567 144.017 3.20335 147.136 1.95091C150.302 0.650302 153.733 0 157.427 0C161.121 0 164.528 0.650302 167.646 1.95091C170.813 3.20335 173.547 4.98567 175.85 7.29784C178.201 9.61005 180.024 12.3076 181.32 15.3905C182.615 18.4735 183.263 21.8454 183.263 25.5064C183.263 29.1674 182.615 32.5393 181.32 35.6222C180.024 38.7051 178.201 41.4029 175.85 43.7151C173.547 46.0272 170.813 47.8334 167.646 49.1342C164.528 50.3866 161.121 51.0126 157.427 51.0126ZM173.979 59.7557C172.684 59.7557 171.413 59.563 170.165 59.1777C168.918 58.8405 167.622 58.2864 166.279 57.5158C164.983 56.7933 163.64 55.8539 162.249 54.6979C160.905 53.5417 159.466 52.1689 157.931 50.5793L159.802 50.2178C161.433 52.0001 163.04 53.4936 164.624 54.6979C166.255 55.9504 167.838 56.8655 169.374 57.4435C170.957 58.0699 172.492 58.3829 173.979 58.3829C178.105 58.3829 181.584 56.6729 184.415 53.2529L185.422 54.2642C182.447 57.9253 178.633 59.7557 173.979 59.7557ZM157.427 49.6399C160.881 49.6399 164.096 49.0377 167.071 47.8334C170.045 46.581 172.636 44.871 174.843 42.7034C177.05 40.4874 178.753 37.9345 179.953 35.0442C181.2 32.1058 181.824 28.9265 181.824 25.5064C181.824 22.0863 181.2 18.9311 179.953 16.0409C178.753 13.1024 177.05 10.5494 174.843 8.38171C172.636 6.16587 170.045 4.4558 167.071 3.25152C164.096 1.99908 160.881 1.37287 157.427 1.37287C153.972 1.37287 150.758 1.99908 147.783 3.25152C144.809 4.4558 142.218 6.16587 140.011 8.38171C137.804 10.5494 136.077 13.1024 134.829 16.0409C133.63 18.9311 133.03 22.0863 133.03 25.5064C133.03 28.9265 133.63 32.1058 134.829 35.0442C136.077 37.9345 137.804 40.4874 140.011 42.7034C142.218 44.871 144.809 46.581 147.783 47.8334C150.758 49.0377 153.972 49.6399 157.427 49.6399Z" fill="url(#paint3_linear_1_218)"/>
<path d="M116.324 50.7961V0.216797H117.764V50.7961H116.324Z" fill="url(#paint4_linear_1_218)"/>
<path d="M57.5698 50.7961V0.216797H58.7931L96.5038 49.1342H95.7126V0.216797H97.1518V50.7961H95.9282L58.2175 1.87869H59.0091V50.7961H57.5698Z" fill="url(#paint5_linear_1_218)"/>
<path d="M19.4311 51.013C13.4338 51.013 8.68403 49.2303 5.18162 45.6657C1.72721 42.1012 0 36.7543 0 29.625V0.216797H1.43934V29.5527C1.43934 36.2967 2.99863 41.3306 6.11719 44.6544C9.28375 47.9779 13.7217 49.6398 19.4311 49.6398C25.1405 49.6398 29.5545 47.9779 32.673 44.6544C35.8396 41.3306 37.4227 36.2967 37.4227 29.5527V0.216797H38.8624V29.625C38.8624 36.7543 37.111 42.1012 33.6086 45.6657C30.1542 49.2303 25.4283 51.013 19.4311 51.013Z" fill="url(#paint6_linear_1_218)"/>
</g>
<defs>
<linearGradient id="paint0_linear_1_218" x1="340.209" y1="0.216797" x2="340.209" y2="50.7961" gradientUnits="userSpaceOnUse">
<stop stop-color="#C35A17"/>
<stop offset="1" stop-color="#B4BF7D"/>
</linearGradient>
<linearGradient id="paint1_linear_1_218" x1="289.115" y1="0.216797" x2="289.115" y2="50.7961" gradientUnits="userSpaceOnUse">
<stop stop-color="#C35A17"/>
<stop offset="1" stop-color="#B4BF7D"/>
</linearGradient>
<linearGradient id="paint2_linear_1_218" x1="224.961" y1="0.216797" x2="224.961" y2="50.7961" gradientUnits="userSpaceOnUse">
<stop stop-color="#C35A17"/>
<stop offset="1" stop-color="#B4BF7D"/>
</linearGradient>
<linearGradient id="paint3_linear_1_218" x1="158.506" y1="0" x2="158.506" y2="59.7557" gradientUnits="userSpaceOnUse">
<stop stop-color="#C35A17"/>
<stop offset="1" stop-color="#B4BF7D"/>
</linearGradient>
<linearGradient id="paint4_linear_1_218" x1="117.044" y1="0.216797" x2="117.044" y2="50.7961" gradientUnits="userSpaceOnUse">
<stop stop-color="#C35A17"/>
<stop offset="1" stop-color="#B4BF7D"/>
</linearGradient>
<linearGradient id="paint5_linear_1_218" x1="77.3608" y1="0.216797" x2="77.3608" y2="50.7961" gradientUnits="userSpaceOnUse">
<stop stop-color="#C35A17"/>
<stop offset="1" stop-color="#B4BF7D"/>
</linearGradient>
<linearGradient id="paint6_linear_1_218" x1="19.4312" y1="0.216797" x2="19.4312" y2="51.013" gradientUnits="userSpaceOnUse">
<stop stop-color="#C35A17"/>
<stop offset="1" stop-color="#B4BF7D"/>
</linearGradient>
<clipPath id="clip0_1_218">
<rect width="360" height="60" fill="white"/>
</clipPath>
</defs>
</svg>
